<?xml version="1.0" encoding="UTF-8" standalone="no"?>
<svg
   xmlns:dc="http://purl.org/dc/elements/1.1/"
   xmlns:cc="http://creativecommons.org/ns#"
   xmlns:rdf="http://www.w3.org/1999/02/22-rdf-syntax-ns#"
   xmlns:svg="http://www.w3.org/2000/svg"
   xmlns="http://www.w3.org/2000/svg"
   xmlns:sodipodi="http://sodipodi.sourceforge.net/DTD/sodipodi-0.dtd"
   xmlns:inkscape="http://www.inkscape.org/namespaces/inkscape"
   sodipodi:docname="logo.svg"
   inkscape:version="1.0 (4035a4f, 2020-05-01)"
   id="svg867"
   version="1.1"
   viewBox="0 0 71.852951 71.726135"
   height="71.726135mm"
   width="71.852951mm">
  <defs
     id="defs861" />
  <sodipodi:namedview
     inkscape:window-maximized="1"
     inkscape:window-y="23"
     inkscape:window-x="0"
     inkscape:window-height="710"
     inkscape:window-width="1280"
     showgrid="false"
     inkscape:document-rotation="0"
     inkscape:current-layer="layer1"
     inkscape:document-units="mm"
     inkscape:cy="169.80326"
     inkscape:cx="-0.71642529"
     inkscape:zoom="0.35"
     inkscape:pageshadow="2"
     inkscape:pageopacity="0.0"
     borderopacity="1.0"
     bordercolor="#666666"
     pagecolor="#ffffff"
     id="base" />
  <metadata
     id="metadata864">
    <rdf:RDF>
      <cc:Work
         rdf:about="">
        <dc:format>image/svg+xml</dc:format>
        <dc:type
           rdf:resource="http://purl.org/dc/dcmitype/StillImage" />
        <dc:title></dc:title>
      </cc:Work>
    </rdf:RDF>
  </metadata>
  <g
     transform="translate(-23.624078,-89.63241)"
     id="layer1"
     inkscape:groupmode="layer"
     inkscape:label="Layer 1">
    <g
       transform="matrix(2,0,0,2,-135.41712,-72.32575)"
       id="g923">
      <path
         id="path999"
         d="M 93.322321,116.39585 C 82.076414,113.65461 76.423066,101.49161 81.52255,91.009016 c 5.345339,-10.98798 19.18049,-13.413754 28.23965,-4.951375 7.58942,7.089455 7.57862,18.130239 -0.0252,25.715669 l -1.99494,1.99012 -2.24895,1.11818 c -3.80574,1.89221 -8.317387,2.45353 -12.170837,1.51424 z m 8.044389,-2.50512 C 113.09294,110.89166 116.9693,96.594542 108.40549,87.929707 98.465418,77.87237 81.331599,85.44641 82.012624,99.59673 c 0.486962,10.11809 9.539788,16.80407 19.354086,14.294 z m -8.147389,-2.52855 c -0.604712,-0.60471 -0.780841,-2.021 -0.586663,-4.7175 0.09576,-1.32976 0.246433,-4.16397 0.334833,-6.29824 l 0.160728,-3.880501 -0.630553,-1.014291 -0.630554,-1.014293 0.04822,-2.645834 c 0.102183,-5.606914 0.158183,-5.724214 2.607068,-5.460884 l 1.573673,0.169218 0.16932,0.79375 c 0.09313,0.436562 0.183407,2.254457 0.200626,4.039765 l 0.0313,3.246016 -0.637572,1.251902 -0.637572,1.2519 0.285763,4.233332 c 0.157171,2.32833 0.295252,5.3817 0.306843,6.78524 l 0.02109,2.55191 -0.504028,0.55695 c -0.592667,0.65489 -1.541137,0.72294 -2.112513,0.15156 z m 6.409648,-0.0448 c -0.671576,-0.77345 -0.758899,-2.01495 -0.365041,-5.18991 l 0.371703,-2.99638 -0.141915,-7.389575 -0.141917,-7.389577 0.358915,-1.058333 c 0.400146,-1.179908 1.190306,-1.511624 1.903036,-0.798903 1.38686,1.386864 1.9675,9.890819 0.82247,12.045803 l -0.49093,0.923933 0.0397,1.984372 c 0.0218,1.09141 0.18242,3.48016 0.35687,5.30834 l 0.3172,3.32396 -0.37076,0.77708 -0.37076,0.77708 -0.93769,0.079 c -0.64655,0.0545 -1.065966,-0.0688 -1.350861,-0.39687 z"
         style="fill:#fdf9f4;stroke-width:0.264583" />
      <path
         id="path997"
         d="m 94.518081,116.5297 c -7.51383,-1.35597 -13.533935,-7.57581 -14.683526,-15.1707 l -0.313956,-2.074182 0.303057,-2.277341 C 82.206502,79.101465 105.75926,75.259932 113.59025,91.500031 119.60791,103.97961 108.16797,118.993 94.518081,116.5297 Z m 5.773859,-2.23999 c 12.47136,-2.22286 17.20163,-17.419287 8.24754,-26.495954 l -1.8557,-1.881099 -2.03344,-0.973416 c -8.70729,-4.168224 -18.874527,-0.264117 -21.926598,8.41957 -3.128213,8.900329 2.184843,19.055299 10.863162,20.763019 0.800365,0.1575 1.693333,0.33325 1.984375,0.39056 1.082495,0.21317 2.704634,0.13665 4.720661,-0.22268 z m -7.069072,-3.01503 c -0.657941,-0.72701 -0.805033,-2.79186 -0.459202,-6.44617 0.169027,-1.78607 0.334107,-4.43936 0.366843,-5.896191 l 0.05952,-2.648789 -0.595312,-0.760331 -0.595313,-0.760332 0.0313,-3.337756 c 0.01722,-1.835766 0.107684,-3.694944 0.201036,-4.131506 l 0.169732,-0.79375 h 1.844997 1.844995 l 0.18768,1.058333 c 0.103222,0.582083 0.194537,2.368968 0.202925,3.970855 l 0.01525,2.912522 -0.686748,1.290049 -0.686744,1.29005 0.165256,2.412014 c 0.09089,1.326602 0.292799,3.881082 0.448686,5.676612 0.472257,5.43951 -0.659776,8.21429 -2.514903,6.16439 z m 6.283731,-0.18246 -0.442505,-0.67535 0.223147,-3.09497 c 0.122729,-1.70223 0.229817,-6.92149 0.237966,-11.598358 l 0.01482,-8.503395 0.504023,-0.558584 c 1.49019,-1.651481 2.5945,0.860216 2.95345,6.717458 l 0.17836,2.910417 -0.71568,2.068695 -0.71567,2.068697 0.17127,2.29693 c 0.0942,1.26331 0.29167,3.243 0.43883,4.39932 0.4214,3.31124 -0.0484,4.64448 -1.63676,4.64448 -0.53225,0 -0.904877,-0.20776 -1.211248,-0.67534 z"
         style="fill:#fef4eb;stroke-width:0.264583" />
      <path
         id="path995"
         d="m 93.190029,116.13652 c -5.763134,-1.56274 -10.52185,-5.96345 -12.496595,-11.55647 l -0.685178,-1.94061 -0.120797,-2.915451 -0.120797,-2.915449 0.436755,-1.71476 c 2.143298,-8.41486 8.986802,-13.863624 17.352237,-13.815764 l 2.778126,0.01589 2.05794,0.659 c 6.806,2.179432 11.58033,7.686977 12.62045,14.55863 l 0.31396,2.074185 -0.29336,2.204459 c -1.4166,10.64507 -11.93274,18.03353 -21.842741,15.34634 z m 8.176681,-1.98121 c 17.87187,-4.57085 14.5108,-30.954925 -3.943348,-30.954925 -4.822611,0 -10.403132,2.654029 -12.612603,5.998404 -1.237878,1.873718 -1.471812,2.33251 -2.200763,4.316149 -4.364439,11.876602 6.457967,23.785862 18.756714,20.640372 z m -8.143842,-2.88063 c -0.657941,-0.72701 -0.805033,-2.79186 -0.459202,-6.44617 0.169027,-1.78607 0.334107,-4.43936 0.366843,-5.896191 l 0.05952,-2.648789 -0.595312,-0.760331 -0.595313,-0.760332 0.0313,-3.337756 c 0.01722,-1.835766 0.107684,-3.694944 0.201036,-4.131506 l 0.169732,-0.79375 h 1.844997 1.844995 l 0.18768,1.058333 c 0.103222,0.582083 0.194537,2.368968 0.202925,3.970855 l 0.01525,2.912522 -0.686748,1.290049 -0.686744,1.29005 0.165256,2.412014 c 0.09089,1.326602 0.292799,3.881082 0.448686,5.676612 0.472257,5.43951 -0.659776,8.21429 -2.514903,6.16439 z m 6.283731,-0.18246 -0.442505,-0.67535 0.223147,-3.09497 c 0.122729,-1.70223 0.229817,-6.92149 0.237966,-11.598358 l 0.01482,-8.503395 0.504023,-0.558584 c 1.49019,-1.651481 2.5945,0.860216 2.95345,6.717458 l 0.17836,2.910417 -0.71568,2.068695 -0.71567,2.068697 0.17127,2.29693 c 0.0942,1.26331 0.29167,3.243 0.43883,4.39932 0.4214,3.31124 -0.0484,4.64448 -1.63676,4.64448 -0.53225,0 -0.904877,-0.20776 -1.211248,-0.67534 z"
         style="fill:#f4f3f2;stroke-width:0.264583" />
      <path
         id="path993"
         d="m 93.190029,116.13652 c -5.763134,-1.56274 -10.52185,-5.96345 -12.496595,-11.55647 l -0.685178,-1.94061 -0.120797,-2.915451 -0.120797,-2.915449 0.436755,-1.71476 c 2.143298,-8.41486 8.986802,-13.863624 17.352237,-13.815764 l 2.778126,0.01589 2.05794,0.659 c 6.806,2.179432 11.58033,7.686977 12.62045,14.55863 l 0.31396,2.074185 -0.29336,2.204459 c -1.4166,10.64507 -11.93274,18.03353 -21.842741,15.34634 z m 8.176681,-1.98121 c 17.87187,-4.57085 14.5108,-30.954925 -3.943348,-30.954925 -4.822611,0 -10.403132,2.654029 -12.612603,5.998404 -1.237878,1.873718 -1.471812,2.33251 -2.200763,4.316149 -4.364439,11.876602 6.457967,23.785862 18.756714,20.640372 z m -1.466641,-2.89322 -0.624623,-0.50547 0.0016,-1.80963 c 7.94e-4,-0.9953 0.163354,-3.28705 0.360971,-5.09279 l 0.359304,-3.28315 -0.331533,-1.938168 c -0.420606,-2.458879 -0.222697,-10.46335 0.285565,-11.549828 1.247607,-2.666927 2.889377,1.462162 2.893897,7.27823 l 0.002,2.569761 -0.56612,1.513099 -0.56612,1.513099 0.17145,2.928597 c 0.0943,1.61073 0.24561,4.0143 0.33626,5.34128 l 0.1648,2.41267 -0.56388,0.56389 c -0.6959,0.6959 -1.11997,0.70877 -1.923639,0.0584 z m -6.589434,-0.17007 c -0.603637,-0.72733 -0.707724,-2.6836 -0.354984,-6.67172 0.1896,-2.14364 0.349664,-4.831648 0.355698,-5.973352 l 0.01097,-2.075823 -0.595313,-0.834593 -0.595312,-0.834594 0.01645,-3.307292 c 0.009,-1.81901 0.100614,-3.634713 0.203478,-4.034895 l 0.187025,-0.727605 h 1.686443 c 2.02733,0 1.917652,-0.199789 2.159418,3.933533 l 0.186396,3.18673 -0.734851,1.501984 -0.734854,1.501984 0.176409,3.470693 c 0.09703,1.90889 0.248499,4.92579 0.336611,6.70422 l 0.160202,3.23352 -0.438404,0.66908 c -0.499057,0.76166 -1.501468,0.88942 -2.025387,0.25813 z"
         style="fill:#fef1e5;stroke-width:0.264583" />
      <path
         id="path991"
         d="M 93.322321,116.10456 C 82.384114,113.16799 76.822703,101.43309 81.65615,91.488259 c 8.225422,-16.923824 33.35418,-11.313307 33.35418,7.447012 0,11.154309 -11.16624,19.994059 -21.688009,17.169289 z m 8.080349,-1.82819 c 7.24096,-1.84412 11.87162,-7.88907 11.8532,-15.47339 l -0.007,-2.778125 -0.5933,-1.719792 c -0.96533,-2.798195 -2.1579,-4.77963 -4.02118,-6.681135 l -1.7533,-1.789274 -2.21545,-1.030527 c -11.120095,-5.17258 -22.985236,2.096852 -22.985236,14.082395 0,10.431018 9.643902,17.956528 19.722016,15.389848 z m -1.502601,-3.01428 -0.624623,-0.50547 0.0016,-1.80963 c 7.94e-4,-0.9953 0.163354,-3.28705 0.360971,-5.09279 l 0.359304,-3.28315 -0.331533,-1.938168 c -0.420606,-2.458879 -0.222697,-10.46335 0.285565,-11.549828 1.247607,-2.666927 2.889377,1.462162 2.893897,7.27823 l 0.002,2.569761 -0.56612,1.513099 -0.56612,1.513099 0.17145,2.928597 c 0.0943,1.61073 0.24561,4.0143 0.33626,5.34128 l 0.1648,2.41267 -0.56388,0.56389 c -0.6959,0.6959 -1.11997,0.70877 -1.923639,0.0584 z m -6.589434,-0.17007 c -0.603637,-0.72733 -0.707724,-2.6836 -0.354984,-6.67172 0.1896,-2.14364 0.349664,-4.831648 0.355698,-5.973352 l 0.01097,-2.075823 -0.595313,-0.834593 -0.595312,-0.834594 0.01645,-3.307292 c 0.009,-1.81901 0.100614,-3.634713 0.203478,-4.034895 l 0.187025,-0.727605 h 1.686443 c 2.02733,0 1.917652,-0.199789 2.159418,3.933533 l 0.186396,3.18673 -0.734851,1.501984 -0.734854,1.501984 0.176409,3.470693 c 0.09703,1.90889 0.248499,4.92579 0.336611,6.70422 l 0.160202,3.23352 -0.438404,0.66908 c -0.499057,0.76166 -1.501468,0.88942 -2.025387,0.25813 z"
         style="fill:#faeee4;stroke-width:0.264583" />
      <path
         id="path989"
         d="M 93.322321,116.10456 C 82.384114,113.16799 76.822703,101.43309 81.65615,91.488259 c 8.225422,-16.923824 33.35418,-11.313307 33.35418,7.447012 0,11.154309 -11.16624,19.994059 -21.688009,17.169289 z m 8.080349,-1.82819 c 7.24096,-1.84412 11.87162,-7.88907 11.8532,-15.47339 l -0.007,-2.778125 -0.5933,-1.719792 C 107.38053,79.013668 86.018368,79.46845 82.081506,94.955964 79.133072,106.55503 89.807793,117.22933 101.40267,114.27637 Z m -1.502601,-3.01428 -0.624623,-0.50547 0.0016,-1.80963 c 7.94e-4,-0.9953 0.163354,-3.28705 0.360971,-5.09279 l 0.359304,-3.28315 -0.331533,-1.938168 c -0.420606,-2.458879 -0.222697,-10.46335 0.285565,-11.549828 1.247607,-2.666927 2.889377,1.462162 2.893897,7.27823 l 0.002,2.569761 -0.56612,1.513099 -0.56612,1.513099 0.17145,2.928597 c 0.0943,1.61073 0.24561,4.0143 0.33626,5.34128 l 0.1648,2.41267 -0.56388,0.56389 c -0.6959,0.6959 -1.11997,0.70877 -1.923639,0.0584 z m -6.589434,-0.17007 c -0.603637,-0.72733 -0.707724,-2.6836 -0.354984,-6.67172 0.1896,-2.14364 0.349664,-4.831648 0.355698,-5.973352 l 0.01097,-2.075823 -0.595313,-0.834593 -0.595312,-0.834594 0.01645,-3.307292 c 0.009,-1.81901 0.100614,-3.634713 0.203478,-4.034895 l 0.187025,-0.727605 h 1.686443 c 2.02733,0 1.917652,-0.199789 2.159418,3.933533 l 0.186396,3.18673 -0.734851,1.501984 -0.734854,1.501984 0.176409,3.470693 c 0.09703,1.90889 0.248499,4.92579 0.336611,6.70422 l 0.160202,3.23352 -0.438404,0.66908 c -0.499057,0.76166 -1.501468,0.88942 -2.025387,0.25813 z"
         style="fill:#feecdb;stroke-width:0.264583" />
      <path
         id="path987"
         d="M 93.719196,116.15792 C 85.678731,114.30775 79.988447,107.11355 79.992217,98.80298 l 0.0013,-2.778125 0.696263,-1.984375 c 2.156522,-6.146088 5.86737,-9.981666 11.441946,-11.826539 l 2.116666,-0.700498 3.175,-0.02034 3.174998,-0.02034 1.9605,0.642084 c 7.33964,2.403802 12.47614,9.432239 12.4547,17.042129 -0.0302,10.702024 -10.91216,19.389964 -21.294364,17.000934 z m 8.098154,-1.90535 c 9.76284,-2.86914 14.34074,-13.35638 9.82774,-22.513811 -6.2275,-12.636376 -24.729527,-11.2677 -29.326764,2.169429 l -0.724174,2.116667 -0.01556,2.778125 -0.01556,2.77812 0.579486,1.85209 c 2.64756,8.46181 11.371969,13.25946 19.674822,10.81938 z m -1.917281,-2.99048 -0.624623,-0.50547 0.0016,-1.80963 c 7.94e-4,-0.9953 0.163354,-3.28705 0.360971,-5.09279 l 0.359304,-3.28315 -0.331533,-1.938168 c -0.420606,-2.458879 -0.222697,-10.46335 0.285565,-11.549828 1.247607,-2.666927 2.889377,1.462162 2.893897,7.27823 l 0.002,2.569761 -0.56612,1.513099 -0.56612,1.513099 0.17145,2.928597 c 0.0943,1.61073 0.24561,4.0143 0.33626,5.34128 l 0.1648,2.41267 -0.56388,0.56389 c -0.6959,0.6959 -1.11997,0.70877 -1.923639,0.0584 z m -6.589434,-0.17007 c -0.603637,-0.72733 -0.707724,-2.6836 -0.354984,-6.67172 0.1896,-2.14364 0.349664,-4.831648 0.355698,-5.973352 l 0.01097,-2.075823 -0.595313,-0.834593 -0.595312,-0.834594 0.01645,-3.307292 c 0.009,-1.81901 0.100614,-3.634713 0.203478,-4.034895 l 0.187025,-0.727605 h 1.686443 c 2.02733,0 1.917652,-0.199789 2.159418,3.933533 l 0.186396,3.18673 -0.734851,1.501984 -0.734854,1.501984 0.176409,3.470693 c 0.09703,1.90889 0.248499,4.92579 0.336611,6.70422 l 0.160202,3.23352 -0.438404,0.66908 c -0.499057,0.76166 -1.501468,0.88942 -2.025387,0.25813 z"
         style="fill:#fee8d4;stroke-width:0.264583" />
      <path
         id="path985"
         d="M 94.472382,116.25592 C 84.346031,114.4489 77.592248,103.40657 80.776129,93.862755 87.170968,74.693963 114.80161,78.99644 114.77162,99.156325 114.75598,109.66239 104.75124,118.09016 94.472382,116.25592 Z m 8.141988,-2.16963 c 11.12023,-4.06664 14.34296,-16.862743 6.58162,-26.132821 -3.99259,-4.768704 -12.342778,-6.397087 -18.387211,-3.585716 -4.599038,2.139093 -6.978693,4.843671 -8.647162,9.827862 l -0.612341,1.82924 0.0098,3.175 0.0098,3.174995 0.716544,1.81528 c 3.336049,8.45148 12.320168,12.82496 20.32897,9.89616 z m -2.714301,-2.8242 -0.624623,-0.50547 0.0016,-1.80963 c 7.94e-4,-0.9953 0.163354,-3.28705 0.360971,-5.09279 l 0.359304,-3.28315 -0.331533,-1.938168 c -0.420606,-2.458879 -0.222697,-10.46335 0.285565,-11.549828 1.247607,-2.666927 2.889377,1.462162 2.893897,7.27823 l 0.002,2.569761 -0.56612,1.513099 -0.56612,1.513099 0.17145,2.928597 c 0.0943,1.61073 0.24561,4.0143 0.33626,5.34128 l 0.1648,2.41267 -0.56388,0.56389 c -0.6959,0.6959 -1.11997,0.70877 -1.923639,0.0584 z m -6.589434,-0.17007 c -0.603637,-0.72733 -0.707724,-2.6836 -0.354984,-6.67172 0.1896,-2.14364 0.349664,-4.831648 0.355698,-5.973352 l 0.01097,-2.075823 -0.595313,-0.834593 -0.595312,-0.834594 0.01645,-3.307292 c 0.009,-1.81901 0.100614,-3.634713 0.203478,-4.034895 l 0.187025,-0.727605 h 1.686443 c 2.02733,0 1.917652,-0.199789 2.159418,3.933533 l 0.186396,3.18673 -0.734851,1.501984 -0.734854,1.501984 0.176409,3.470693 c 0.09703,1.90889 0.248499,4.92579 0.336611,6.70422 l 0.160202,3.23352 -0.438404,0.66908 c -0.499057,0.76166 -1.501468,0.88942 -2.025387,0.25813 z"
         style="fill:#e9e7e6;stroke-width:0.264583" />
      <path
         id="path983"
         d="M 94.472382,116.25592 C 84.346031,114.4489 77.592248,103.40657 80.776129,93.862755 87.170968,74.693963 114.80161,78.99644 114.77162,99.156325 114.75598,109.66239 104.75124,118.09016 94.472382,116.25592 Z m 8.141988,-2.16963 c 11.12023,-4.06664 14.34296,-16.862743 6.58162,-26.132821 -3.99259,-4.768704 -12.342778,-6.397087 -18.387211,-3.585716 -4.599038,2.139093 -6.978693,4.843671 -8.647162,9.827862 l -0.612341,1.82924 0.0098,3.175 0.0098,3.174995 0.716544,1.81528 c 3.336049,8.45148 12.320168,12.82496 20.32897,9.89616 z M 93.288572,111.066 c -0.422179,-0.50805 -0.452731,-3.3626 -0.108994,-10.1834 l 0.221875,-4.402665 -0.634879,-1.021289 -0.634878,-1.021291 0.06267,-3.042709 c 0.03447,-1.673489 0.133223,-3.37013 0.21946,-3.770312 l 0.156793,-0.727604 h 1.665697 1.665695 l 0.165365,0.826823 c 0.09095,0.454752 0.165364,2.153156 0.165364,3.77423 v 2.947408 l -0.556752,1.038779 -0.556752,1.038778 0.02193,2.264595 c 0.01207,1.245527 0.162325,3.991277 0.333907,6.101657 0.326726,4.01853 0.214016,5.53232 -0.462259,6.2086 -0.529249,0.52925 -1.269463,0.51568 -1.724249,-0.0316 z m 6.429659,-0.026 c -0.516826,-1.00847 -0.553757,-1.97792 -0.187743,-4.92842 l 0.381355,-3.07418 -0.152646,-7.210422 c -0.155269,-7.334254 -0.03346,-8.788181 0.779233,-9.30081 l 0.44688,-0.281887 0.38951,0.39239 c 0.63799,0.642712 1.20565,3.366449 1.38303,6.636045 l 0.16647,3.068655 -0.69047,1.999437 c -0.49849,1.443512 -0.65878,2.355862 -0.57648,3.281352 0.0627,0.70504 0.2545,2.91323 0.42624,4.90707 l 0.31224,3.62517 -0.44182,0.67431 c -0.53159,0.81131 -1.86378,0.9372 -2.235799,0.21129 z"
         style="fill:#fee4cb;stroke-width:0.264583" />
      <path
         id="path981"
         d="m 93.089376,115.84778 c -4.382783,-1.17875 -9.337456,-5.22542 -11.265923,-9.2013 -4.527313,-9.333856 0.173915,-20.748162 9.955044,-24.170259 l 1.940699,-0.678986 3.200511,-0.126674 3.200513,-0.126673 1.55068,0.450798 c 8.41574,2.446521 13.36943,9.299167 13.01118,17.998919 l -0.11985,2.910415 -0.67765,1.82014 c -0.87414,2.34786 -2.21899,4.30112 -4.68726,6.80778 l -1.98437,2.01523 -1.98438,0.93658 c -3.61228,1.70491 -8.732554,2.28025 -12.139194,1.36403 z m 8.305814,-1.31401 c 10.22347,-2.66287 15.04889,-13.70407 10.13543,-23.191182 -6.37053,-12.30045 -24.617555,-10.914988 -29.226522,2.219114 -2.253765,6.422523 -0.345564,13.067538 5.206984,18.132508 2.847487,2.59745 9.550463,3.96833 13.884108,2.83956 z M 93.288572,111.066 c -0.422179,-0.50805 -0.452731,-3.3626 -0.108994,-10.1834 l 0.221875,-4.402665 -0.634879,-1.021289 -0.634878,-1.021291 0.06267,-3.042709 c 0.03447,-1.673489 0.133223,-3.37013 0.21946,-3.770312 l 0.156793,-0.727604 h 1.665697 1.665695 l 0.165365,0.826823 c 0.09095,0.454752 0.165364,2.153156 0.165364,3.77423 v 2.947408 l -0.556752,1.038779 -0.556752,1.038778 0.02193,2.264595 c 0.01207,1.245527 0.162325,3.991277 0.333907,6.101657 0.326726,4.01853 0.214016,5.53232 -0.462259,6.2086 -0.529249,0.52925 -1.269463,0.51568 -1.724249,-0.0316 z m 6.429659,-0.026 c -0.516826,-1.00847 -0.553757,-1.97792 -0.187743,-4.92842 l 0.381355,-3.07418 -0.152646,-7.210422 c -0.155269,-7.334254 -0.03346,-8.788181 0.779233,-9.30081 l 0.44688,-0.281887 0.38951,0.39239 c 0.63799,0.642712 1.20565,3.366449 1.38303,6.636045 l 0.16647,3.068655 -0.69047,1.999437 c -0.49849,1.443512 -0.65878,2.355862 -0.57648,3.281352 0.0627,0.70504 0.2545,2.91323 0.42624,4.90707 l 0.31224,3.62517 -0.44182,0.67431 c -0.53159,0.81131 -1.86378,0.9372 -2.235799,0.21129 z"
         style="fill:#fee0c4;stroke-width:0.264583" />
      <path
         id="path979"
         d="m 93.454612,115.89744 c -1.80637,-0.44108 -4.0703,-1.5112 -5.171448,-2.44445 -0.502682,-0.42604 -1.430585,-1.12215 -2.062006,-1.54691 -2.393255,-1.60998 -4.326013,-4.42231 -5.368358,-7.81143 l -0.610306,-1.98438 -0.0085,-3.174999 -0.0085,-3.175 0.500166,-1.455208 c 2.048852,-5.961027 5.838686,-9.97471 11.148976,-11.807497 l 2.109191,-0.727963 3.571875,-0.01612 3.571878,-0.01612 1.39895,0.48757 c 0.76943,0.268164 1.96005,0.864809 2.64584,1.325878 0.68578,0.461069 1.81815,1.172775 2.51638,1.581567 4.25797,2.492919 7.07234,8.121885 7.06096,14.122476 -0.0203,10.707266 -10.87161,19.187816 -21.29505,16.642596 z m 8.150938,-1.34955 c 10.18219,-2.65212 15.02181,-14.243 9.83304,-23.550119 -2.24882,-4.033715 -4.38777,-5.824893 -8.72356,-7.305178 l -1.85208,-0.632321 -3.704171,0.0059 -3.704167,0.0059 -1.629881,0.693498 c -3.875984,1.649195 -6.999237,4.270116 -8.397663,7.047018 -3.627017,7.202296 -2.60549,13.846282 3.078249,20.020852 l 1.781954,1.93583 2.005894,0.73159 c 4.072728,1.48541 8.172447,1.86485 11.312385,1.047 z M 93.288572,111.066 c -0.422179,-0.50805 -0.452731,-3.3626 -0.108994,-10.1834 l 0.221875,-4.402665 -0.634879,-1.021289 -0.634878,-1.021291 0.06267,-3.042709 c 0.03447,-1.673489 0.133223,-3.37013 0.21946,-3.770312 l 0.156793,-0.727604 h 1.665697 1.665695 l 0.165365,0.826823 c 0.09095,0.454752 0.165364,2.153156 0.165364,3.77423 v 2.947408 l -0.556752,1.038779 -0.556752,1.038778 0.02193,2.264595 c 0.01207,1.245527 0.162325,3.991277 0.333907,6.101657 0.326726,4.01853 0.214016,5.53232 -0.462259,6.2086 -0.529249,0.52925 -1.269463,0.51568 -1.724249,-0.0316 z m 6.429659,-0.026 c -0.516826,-1.00847 -0.553757,-1.97792 -0.187743,-4.92842 l 0.381355,-3.07418 -0.152646,-7.210422 c -0.155269,-7.334254 -0.03346,-8.788181 0.779233,-9.30081 l 0.44688,-0.281887 0.38951,0.39239 c 0.63799,0.642712 1.20565,3.366449 1.38303,6.636045 l 0.16647,3.068655 -0.69047,1.999437 c -0.49849,1.443512 -0.65878,2.355862 -0.57648,3.281352 0.0627,0.70504 0.2545,2.91323 0.42624,4.90707 l 0.31224,3.62517 -0.44182,0.67431 c -0.53159,0.81131 -1.86378,0.9372 -2.235799,0.21129 z"
         style="fill:#fedec0;stroke-width:0.264583" />
      <path
         id="path977"
         d="m 94.380654,116.08825 c -1.334401,-0.21217 -4.387714,-1.43438 -5.159375,-2.06524 l -0.79375,-0.64892 0.490904,-0.01 c 0.269998,-0.005 1.468431,0.28865 2.663185,0.65307 7.747533,2.36314 13.804602,0.59285 18.985342,-5.54883 l 1.5551,-1.84354 0.52873,-1.71183 c 0.2908,-0.9415 0.65956,-2.8624 0.81947,-4.26866 l 0.29074,-2.556842 -0.40555,-1.988682 c -0.51477,-2.524271 -1.8529,-5.414343 -3.52582,-7.615026 -2.85257,-3.752487 -2.73756,-4.29339 0.26722,-1.256771 2.08209,2.104156 3.38426,4.399277 3.87713,6.833578 0.15977,0.789058 0.40053,1.865184 0.53504,2.39139 1.59977,6.258573 -2.93921,14.922973 -9.41274,17.967863 -3.31852,1.56089 -7.396616,2.19568 -10.715626,1.66796 z m -8.852216,-4.75008 c -4.066999,-3.10539 -6.418558,-10.64024 -5.014952,-16.068875 0.231182,-0.894129 1.027544,-2.816315 1.769693,-4.271524 l 1.349362,-2.645833 1.868327,-1.875254 c 5.20189,-5.221176 16.399892,-6.6061 20.125752,-2.489073 0.74762,0.826114 0.41489,0.826688 -1.99546,0.0034 -9.596282,-3.27757 -18.40098,0.727502 -21.421911,9.744379 l -0.824857,2.462032 -0.102509,2.522146 -0.102508,2.522152 0.744277,2.21486 c 0.908709,2.70418 2.03055,4.59851 4.045255,6.83078 0.842919,0.93394 1.53258,1.74827 1.53258,1.80961 0,0.37076 -0.994663,-0.0118 -1.973049,-0.75884 z m 7.760134,-0.27217 c -0.422179,-0.50805 -0.452731,-3.3626 -0.108994,-10.1834 l 0.221875,-4.402665 -0.634879,-1.021289 -0.634878,-1.021291 0.06267,-3.042709 c 0.03447,-1.673489 0.133223,-3.37013 0.21946,-3.770312 l 0.156793,-0.727604 h 1.665697 1.665695 l 0.165365,0.826823 c 0.09095,0.454752 0.165364,2.153156 0.165364,3.77423 v 2.947408 l -0.556752,1.038779 -0.556752,1.038778 0.02193,2.264595 c 0.01207,1.245527 0.162325,3.991277 0.333907,6.101657 0.326726,4.01853 0.214016,5.53232 -0.462259,6.2086 -0.529249,0.52925 -1.269463,0.51568 -1.724249,-0.0316 z m 6.429659,-0.026 c -0.516826,-1.00847 -0.553757,-1.97792 -0.187743,-4.92842 l 0.381355,-3.07418 -0.152646,-7.210422 c -0.155269,-7.334254 -0.03346,-8.788181 0.779233,-9.30081 l 0.44688,-0.281887 0.38951,0.39239 c 0.63799,0.642712 1.20565,3.366449 1.38303,6.636045 l 0.16647,3.068655 -0.69047,1.999437 c -0.49849,1.443512 -0.65878,2.355862 -0.57648,3.281352 0.0627,0.70504 0.2545,2.91323 0.42624,4.90707 l 0.31224,3.62517 -0.44182,0.67431 c -0.53159,0.81131 -1.86378,0.9372 -2.235799,0.21129 z"
         style="fill:#e1dedc;stroke-width:0.264583" />
      <path
         id="path975"
         d="m 94.380654,116.08825 c -1.334401,-0.21217 -4.387714,-1.43438 -5.159375,-2.06524 l -0.79375,-0.64892 0.490904,-0.01 c 0.269998,-0.005 1.468431,0.28865 2.663185,0.65307 7.747533,2.36314 13.804602,0.59285 18.985342,-5.54883 l 1.5551,-1.84354 0.52873,-1.71183 c 0.2908,-0.9415 0.65956,-2.8624 0.81947,-4.26866 l 0.29074,-2.556842 -0.40555,-1.988682 c -0.51477,-2.524271 -1.8529,-5.414343 -3.52582,-7.615026 -2.85257,-3.752487 -2.73756,-4.29339 0.26722,-1.256771 2.08209,2.104156 3.38426,4.399277 3.87713,6.833578 0.15977,0.789058 0.40053,1.865184 0.53504,2.39139 1.59977,6.258573 -2.93921,14.922973 -9.41274,17.967863 -3.31852,1.56089 -7.396616,2.19568 -10.715626,1.66796 z m -8.852216,-4.75008 c -4.066999,-3.10539 -6.418558,-10.64024 -5.014952,-16.068875 0.231182,-0.894129 1.027544,-2.816315 1.769693,-4.271524 l 1.349362,-2.645833 1.868327,-1.875254 c 5.20189,-5.221176 16.399892,-6.6061 20.125752,-2.489073 0.74762,0.826114 0.41489,0.826688 -1.99546,0.0034 -9.596282,-3.27757 -18.40098,0.727502 -21.421911,9.744379 l -0.824857,2.462032 -0.102509,2.522146 -0.102508,2.522152 0.744277,2.21486 c 0.908709,2.70418 2.03055,4.59851 4.045255,6.83078 0.842919,0.93394 1.53258,1.74827 1.53258,1.80961 0,0.37076 -0.994663,-0.0118 -1.973049,-0.75884 z m 7.955467,-0.24057 c -0.588318,-0.58832 -0.785582,-2.02695 -0.592929,-4.32419 0.09305,-1.10952 0.293991,-3.7853 0.446543,-5.94619 l 0.277367,-3.928875 -0.700893,-1.34043 -0.700893,-1.340432 0.09159,-3.382798 c 0.09802,-3.620143 0.292863,-4.202857 1.236485,-3.697845 0.379506,0.203105 0.755029,0.207472 1.262114,0.01468 1.11983,-0.425759 1.268251,-0.02834 1.384654,3.707611 l 0.106744,3.426024 -0.720537,1.229505 -0.720537,1.229503 0.358833,4.932007 c 0.197358,2.71261 0.356907,5.78485 0.354552,6.8272 l -0.0043,1.89518 -0.499745,0.55222 c -0.59404,0.6564 -1.029041,0.69685 -1.579065,0.14683 z m 6.332587,-0.11066 -0.489675,-0.54108 0.232823,-2.97717 c 0.128053,-1.63744 0.192008,-6.48951 0.142121,-10.782377 -0.09247,-7.957091 0.07244,-9.833587 0.891819,-10.148011 1.86011,-0.713792 2.98288,8.640653 1.45618,12.132386 l -0.57842,1.322917 0.16256,2.381245 c 0.0894,1.30969 0.29595,3.52225 0.459,4.9168 l 0.29644,2.53555 -0.36828,0.77175 c -0.46393,0.97219 -1.50937,1.15618 -2.204568,0.38799 z"
         style="fill:#fedcbb;stroke-width:0.264583" />
      <path
         id="path973"
         d="m 94.019252,115.96003 c -2.188025,-0.41853 -5.942897,-2.34038 -4.572586,-2.34038 0.213899,0 1.560379,0.31969 2.992177,0.71042 l 2.603269,0.71042 3.042709,-0.0128 3.042709,-0.0128 1.66055,-0.68189 c 2.5347,-1.04086 5.12373,-2.89943 7.29559,-5.23723 l 1.96586,-2.11605 0.55968,-1.77327 c 2.00537,-6.353687 1.12116,-11.415083 -3.0074,-17.214896 -1.76802,-2.483724 -1.39399,-2.830814 0.70342,-0.652754 2.36006,2.450812 3.63605,5.537196 4.19264,10.141257 l 0.33585,2.778123 -0.42989,2.09956 c -1.85291,9.04945 -11.28447,15.34297 -20.384578,13.60229 z m -8.00147,-4.59632 C 82.869556,109.9827 80.28119,104.35173 80.244044,98.80298 l -0.0186,-2.778125 0.501441,-1.440716 c 2.415014,-6.938702 6.369611,-10.734338 12.860017,-12.343091 l 2.778125,-0.688603 2.248958,0.136773 c 2.542185,0.154606 4.527665,0.688847 5.823825,1.567043 1.52965,1.036391 1.21929,1.25508 -0.84904,0.598262 C 91.834184,80.121747 81.913981,86.757447 81.241206,98.80298 l -0.155165,2.77812 0.834934,2.15489 c 0.917448,2.36784 2.24918,4.56994 3.946819,6.52631 0.60749,0.70007 1.104527,1.32515 1.104527,1.38906 0,0.13936 0.06042,0.15757 -0.954539,-0.28765 z m 7.466123,-0.26611 c -0.588318,-0.58832 -0.785582,-2.02695 -0.592929,-4.32419 0.09305,-1.10952 0.293991,-3.7853 0.446543,-5.94619 l 0.277367,-3.928875 -0.700893,-1.34043 -0.700893,-1.340432 0.09159,-3.382798 c 0.09802,-3.620143 0.292863,-4.202857 1.236485,-3.697845 0.379506,0.203105 0.755029,0.207472 1.262114,0.01468 1.11983,-0.425759 1.268251,-0.02834 1.384654,3.707611 l 0.106744,3.426024 -0.720537,1.229505 -0.720537,1.229503 0.358833,4.932007 c 0.197358,2.71261 0.356907,5.78485 0.354552,6.8272 l -0.0043,1.89518 -0.499745,0.55222 c -0.59404,0.6564 -1.029041,0.69685 -1.579065,0.14683 z m 6.332587,-0.11066 -0.489675,-0.54108 0.232823,-2.97717 c 0.128053,-1.63744 0.192008,-6.48951 0.142121,-10.782377 -0.09247,-7.957091 0.07244,-9.833587 0.891819,-10.148011 1.86011,-0.713792 2.98288,8.640653 1.45618,12.132386 l -0.57842,1.322917 0.16256,2.381245 c 0.0894,1.30969 0.29595,3.52225 0.459,4.9168 l 0.29644,2.53555 -0.36828,0.77175 c -0.46393,0.97219 -1.50937,1.15618 -2.204568,0.38799 z"
         style="fill:#fed8b4;stroke-width:0.264583" />
      <path
         id="path971"
         d="m 94.30433,115.96347 c -1.66743,-0.31959 -4.455172,-1.59085 -3.821978,-1.7429 0.257028,-0.0617 1.32859,0.0894 2.38125,0.33588 1.052661,0.24644 3.344926,0.50869 5.093925,0.58276 l 3.179993,0.13467 2.38646,-1.19855 c 2.39312,-1.2019 4.16442,-2.46015 5.99095,-4.25571 1.26972,-1.24818 1.44564,-1.2154 0.69151,0.12888 -2.34904,4.18726 -10.11397,7.12435 -15.90211,6.01497 z m -0.820425,-4.86587 c -0.588318,-0.58832 -0.785582,-2.02695 -0.592929,-4.32419 0.09305,-1.10952 0.293991,-3.7853 0.446543,-5.94619 l 0.277367,-3.928875 -0.700893,-1.34043 -0.700893,-1.340432 0.09159,-3.382798 c 0.09802,-3.620143 0.292863,-4.202857 1.236485,-3.697845 0.379506,0.203105 0.755029,0.207472 1.262114,0.01468 1.11983,-0.425759 1.268251,-0.02834 1.384654,3.707611 l 0.106744,3.426024 -0.720537,1.229505 -0.720537,1.229503 0.358833,4.932007 c 0.197358,2.71261 0.356907,5.78485 0.354552,6.8272 l -0.0043,1.89518 -0.499745,0.55222 c -0.59404,0.6564 -1.029041,0.69685 -1.579065,0.14683 z m 6.332587,-0.11066 -0.489675,-0.54108 0.232823,-2.97717 c 0.128053,-1.63744 0.192008,-6.48951 0.142121,-10.782377 -0.09247,-7.957091 0.07244,-9.833587 0.891819,-10.148011 1.86011,-0.713792 2.98288,8.640653 1.45618,12.132386 l -0.57842,1.322917 0.16256,2.381245 c 0.0894,1.30969 0.29595,3.52225 0.459,4.9168 l 0.29644,2.53555 -0.36828,0.77175 c -0.46393,0.97219 -1.50937,1.15618 -2.204568,0.38799 z m -14.360056,-0.19913 c -0.814398,-0.15733 -2.578033,-2.26783 -3.513866,-4.20497 -0.761844,-1.57698 -0.929935,-2.21886 -1.601571,-6.11586 l -0.328816,-1.907867 0.316054,-1.913779 c 0.31447,-1.90419 1.399316,-4.518378 2.398548,-5.779854 l 0.523949,-0.661459 -0.891722,2.645834 c -2.347289,6.964656 -1.551181,11.164525 3.297573,17.396355 0.311367,0.40018 0.526425,0.71139 0.477908,0.69157 -0.04852,-0.0198 -0.353643,-0.0873 -0.678057,-0.14997 z m 26.517854,-3.46744 c 0.80732,-1.65274 1.4793,-4.94881 1.62859,-7.988224 l 0.14945,-3.042708 -0.85088,-2.324938 c -0.46798,-1.278716 -1.40562,-3.183716 -2.08365,-4.233333 -0.67802,-1.049618 -1.37868,-2.239551 -1.55702,-2.644296 l -0.32426,-0.7359 0.50931,0.272574 c 1.86033,0.995617 4.25596,5.55328 4.66345,8.872143 0.72645,5.916822 0.12436,9.541122 -1.99993,12.038542 l -0.56263,0.66146 z M 84.211054,87.990742 c 1.141903,-1.984563 5.335573,-4.806375 7.740738,-5.208543 0.53551,-0.08954 1.509435,-0.328014 2.164279,-0.529936 2.912578,-0.8981 7.240509,-0.618276 9.332279,0.603381 1.50866,0.881108 1.10028,1.086859 -1.05327,0.530662 -1.50385,-0.388397 -2.991494,-0.540246 -5.500884,-0.561494 l -3.439584,-0.02912 -2.278487,1.114317 c -1.862728,0.910986 -4.401527,2.583688 -7.097363,4.676139 -0.246182,0.191081 -0.199591,-0.01861 0.132292,-0.595402 z"
         style="fill:#dad7d4;stroke-width:0.264583" />
      <path
         id="path969"
         d="m 94.30433,115.96347 c -1.66743,-0.31959 -4.455172,-1.59085 -3.821978,-1.7429 0.257028,-0.0617 1.32859,0.0894 2.38125,0.33588 1.052661,0.24644 3.344926,0.50869 5.093925,0.58276 l 3.179993,0.13467 2.38646,-1.19855 c 2.39312,-1.2019 4.16442,-2.46015 5.99095,-4.25571 1.26972,-1.24818 1.44564,-1.2154 0.69151,0.12888 -2.34904,4.18726 -10.11397,7.12435 -15.90211,6.01497 z m -0.870575,-5.0127 -0.499746,-0.55222 -0.0043,-1.89518 c -0.0024,-1.04235 0.16878,-4.08056 0.380299,-6.75157 l 0.384582,-4.856384 -0.749422,-1.385403 -0.74942,-1.385402 0.114745,-3.218325 c 0.06983,-1.958585 0.236083,-3.339663 0.424734,-3.528314 l 0.309989,-0.309989 0.490106,0.44354 c 0.612753,0.554535 0.813291,0.554535 1.426045,0 0.828569,-0.749846 1.071666,-0.08331 1.211953,3.323014 l 0.130784,3.175487 -0.697151,1.333275 -0.697151,1.333275 0.006,1.526222 c 0.0033,0.839425 0.167968,3.509134 0.365977,5.932684 0.383518,4.69409 0.251277,6.4509 -0.5285,7.02109 -0.62746,0.45881 -0.732925,0.44236 -1.319504,-0.2058 z m 6.33852,-0.12147 -0.441412,-0.67368 0.172828,-2.17059 c 0.09505,-1.19382 0.285634,-3.46941 0.423513,-5.05685 0.169046,-1.94624 0.160216,-3.308101 -0.02709,-4.181496 -0.385295,-1.796566 -0.192458,-10.738464 0.248416,-11.519225 1.17932,-2.0885 2.3867,1.235227 2.49636,6.872097 l 0.058,2.983632 -0.58926,1.290405 c -0.6961,1.524354 -0.74166,3.233167 -0.21192,7.947817 0.35717,3.1788 0.23757,4.53126 -0.43866,4.96048 -0.62001,0.39353 -1.24625,0.2259 -1.690815,-0.45259 z m -14.315839,-0.0415 c -0.814398,-0.15733 -2.578033,-2.26783 -3.513866,-4.20497 -0.761844,-1.57698 -0.929935,-2.21886 -1.601571,-6.11586 l -0.328816,-1.907867 0.316054,-1.913779 c 0.31447,-1.90419 1.399316,-4.518378 2.398548,-5.779854 l 0.523949,-0.661459 -0.891722,2.645834 c -2.347289,6.964656 -1.551181,11.164525 3.297573,17.396355 0.311367,0.40018 0.526425,0.71139 0.477908,0.69157 -0.04852,-0.0198 -0.353643,-0.0873 -0.678057,-0.14997 z m 26.517854,-3.46744 c 0.80732,-1.65274 1.4793,-4.94881 1.62859,-7.988224 l 0.14945,-3.042708 -0.85088,-2.324938 c -0.46798,-1.278716 -1.40562,-3.183716 -2.08365,-4.233333 -0.67802,-1.049618 -1.37868,-2.239551 -1.55702,-2.644296 l -0.32426,-0.7359 0.50931,0.272574 c 1.86033,0.995617 4.25596,5.55328 4.66345,8.872143 0.72645,5.916822 0.12436,9.541122 -1.99993,12.038542 l -0.56263,0.66146 z M 84.211054,87.990742 c 1.141903,-1.984563 5.335573,-4.806375 7.740738,-5.208543 0.53551,-0.08954 1.509435,-0.328014 2.164279,-0.529936 2.912578,-0.8981 7.240509,-0.618276 9.332279,0.603381 1.50866,0.881108 1.10028,1.086859 -1.05327,0.530662 -1.50385,-0.388397 -2.991494,-0.540246 -5.500884,-0.561494 l -3.439584,-0.02912 -2.278487,1.114317 c -1.862728,0.910986 -4.401527,2.583688 -7.097363,4.676139 -0.246182,0.191081 -0.199591,-0.01861 0.132292,-0.595402 z"
         style="fill:#fed4ab;stroke-width:0.264583" />
      <path
         id="path967"
         d="m 94.909821,115.98735 c -1.564995,-0.23537 -3.300326,-0.87 -3.569398,-1.30536 -0.20955,-0.33906 -0.0085,-0.33636 1.747347,0.0235 0.783847,0.16065 2.853926,0.37473 4.600176,0.47574 l 3.175004,0.18365 -0.66146,0.28103 c -0.984917,0.41846 -3.640331,0.5898 -5.291669,0.34145 z m 7.519719,-1.01096 c 0.0857,-0.13858 1.03921,-0.73685 2.11902,-1.32949 1.07982,-0.59264 2.74613,-1.74164 3.70291,-2.55333 0.95678,-0.8117 1.7396,-1.36716 1.7396,-1.23436 0,0.45859 -1.49863,2.30761 -2.47139,3.04923 -1.52861,1.16539 -5.53938,2.79483 -5.09014,2.06795 z m -8.995785,-4.02562 -0.499746,-0.55222 -0.0043,-1.89518 c -0.0024,-1.04235 0.16878,-4.08056 0.380299,-6.75157 l 0.384582,-4.856384 -0.749422,-1.385403 -0.74942,-1.385402 0.114745,-3.218325 c 0.06983,-1.958585 0.236083,-3.339663 0.424734,-3.528314 l 0.309989,-0.309989 0.490106,0.44354 c 0.612753,0.554535 0.813291,0.554535 1.426045,0 0.828569,-0.749846 1.071666,-0.08331 1.211953,3.323014 l 0.130784,3.175487 -0.697151,1.333275 -0.697151,1.333275 0.006,1.526222 c 0.0033,0.839425 0.167968,3.509134 0.365977,5.932684 0.383518,4.69409 0.251277,6.4509 -0.5285,7.02109 -0.62746,0.45881 -0.732925,0.44236 -1.319504,-0.2058 z m 6.33852,-0.12147 -0.441412,-0.67368 0.172828,-2.17059 c 0.09505,-1.19382 0.285634,-3.46941 0.423513,-5.05685 0.169046,-1.94624 0.160216,-3.308101 -0.02709,-4.181496 -0.385295,-1.796566 -0.192458,-10.738464 0.248416,-11.519225 1.17932,-2.0885 2.3867,1.235227 2.49636,6.872097 l 0.058,2.983632 -0.58926,1.290405 c -0.6961,1.524354 -0.74166,3.233167 -0.21192,7.947817 0.35717,3.1788 0.23757,4.53126 -0.43866,4.96048 -0.62001,0.39353 -1.24625,0.2259 -1.690815,-0.45259 z m -15.831854,-1.46899 c -1.270568,-1.11557 -2.837222,-4.34498 -2.969935,-6.12205 l -0.103998,-1.39257 0.629388,1.45521 c 0.977285,2.25958 1.760889,3.73078 2.677563,5.02708 0.463071,0.65484 0.932097,1.33945 1.042279,1.52135 0.368328,0.60808 -0.331344,0.33978 -1.275297,-0.48902 z m 28.793009,-3.57888 c 0.23872,-0.77303 0.90659,-5.05889 1.10806,-7.110742 l 0.18186,-1.852083 0.25884,0.661458 c 0.41318,1.055849 0.0645,5.222057 -0.58086,6.940287 -0.52577,1.39986 -1.32845,2.52859 -0.9679,1.36108 z m -32.260836,-5.52324 c -0.59856,-1.962057 0.055,-5.666745 1.353608,-7.672919 l 0.685067,-1.058333 -0.154659,0.661458 c -0.08506,0.363802 -0.38856,1.554427 -0.674441,2.645834 -0.28588,1.091406 -0.620502,2.936875 -0.743605,4.101041 l -0.223823,2.116669 z m 32.844416,-5.556252 c -1.18327,-2.734897 -1.81421,-4.033375 -2.50675,-5.158894 -0.41291,-0.671067 -0.83982,-1.511249 -0.94868,-1.867072 l -0.19794,-0.646951 0.84664,0.79375 c 1.0885,1.020495 2.49335,3.549213 3.05081,5.4914 0.56034,1.952253 0.39843,2.872812 -0.24408,1.387767 z M 84.591071,87.751841 c 0,-0.827303 4.181748,-3.919771 6.149422,-4.547594 1.950706,-0.622408 1.93586,-0.154888 -0.02785,0.877012 -1.063846,0.559036 -2.87641,1.66166 -4.027919,2.450278 -1.151509,0.788617 -2.093653,1.337753 -2.093653,1.220304 z m 16.404169,-4.710757 c -0.94589,-0.194143 -2.910419,-0.368214 -4.365628,-0.386826 l -2.645833,-0.03384 0.79375,-0.363452 c 1.787615,-0.818535 7.030931,-0.35122 8.630561,0.769206 l 0.61531,0.430974 -0.65419,-0.03154 c -0.3598,-0.01735 -1.42809,-0.190382 -2.37397,-0.384524 z"
         style="fill:#fed0a4;stroke-width:0.264583" />
      <path
         id="path965"
         d="m 93.983779,115.74267 c -2.794179,-0.71835 -2.841358,-1.26729 -0.07286,-0.84776 1.058717,0.16044 2.859971,0.371 4.002783,0.46791 1.314855,0.1115 1.946365,0.25951 1.719792,0.40309 -0.436301,0.27647 -4.54973,0.25955 -5.649717,-0.0232 z m 8.863541,-0.8843 c 0,-0.0778 0.67631,-0.5285 1.50291,-1.00143 0.8266,-0.47293 2.26165,-1.43417 3.18901,-2.13608 2.32371,-1.75881 2.54462,-1.4 0.41555,0.67495 -1.28155,1.24897 -5.10747,3.09364 -5.10747,2.46256 z m -9.413565,-3.9076 -0.499746,-0.55222 -0.0043,-1.89518 c -0.0024,-1.04235 0.16878,-4.08056 0.380299,-6.75157 l 0.384582,-4.856384 -0.749422,-1.385403 -0.74942,-1.385402 0.114745,-3.218325 c 0.06983,-1.958585 0.236083,-3.339663 0.424734,-3.528314 l 0.309989,-0.309989 0.490106,0.44354 c 0.612753,0.554535 0.813291,0.554535 1.426045,0 0.828569,-0.749846 1.071666,-0.08331 1.211953,3.323014 l 0.130784,3.175487 -0.697151,1.333275 -0.697151,1.333275 0.006,1.526222 c 0.0033,0.839425 0.167968,3.509134 0.365977,5.932684 0.383518,4.69409 0.251277,6.4509 -0.5285,7.02109 -0.62746,0.45881 -0.732925,0.44236 -1.319504,-0.2058 z m 6.33852,-0.12147 -0.441412,-0.67368 0.172828,-2.17059 c 0.09505,-1.19382 0.285634,-3.46941 0.423513,-5.05685 0.169046,-1.94624 0.160216,-3.308101 -0.02709,-4.181496 -0.385295,-1.796566 -0.192458,-10.738464 0.248416,-11.519225 1.17932,-2.0885 2.3867,1.235227 2.49636,6.872097 l 0.058,2.983632 -0.58926,1.290405 c -0.6961,1.524354 -0.74166,3.233167 -0.21192,7.947817 0.35717,3.1788 0.23757,4.53126 -0.43866,4.96048 -0.62001,0.39353 -1.24625,0.2259 -1.690815,-0.45259 z m -16.259747,-1.99379 c -1.031006,-1.10369 -2.316157,-3.81416 -2.498756,-5.27003 l -0.14933,-1.19063 1.293175,2.56715 c 0.711247,1.41192 1.60927,2.98156 1.995606,3.48807 1.131395,1.48334 0.650489,1.78766 -0.640695,0.40544 z m 29.509552,-3.68253 c 0.0817,-0.3638 0.34958,-2.32833 0.59533,-4.36563 0.30152,-2.499734 0.50729,-3.489085 0.63282,-3.042704 0.49675,1.76647 0.0465,5.512034 -0.85806,7.137724 l -0.51861,0.93207 z m -32.470926,-4.92186 c -0.412946,-0.412947 -0.18729,-3.844305 0.359814,-5.471382 0.874498,-2.600748 1.616962,-3.209409 0.877497,-0.71936 -0.230757,0.777044 -0.560034,2.53136 -0.731727,3.898483 -0.171692,1.367121 -0.399205,2.398639 -0.505584,2.292259 z m 31.354486,-8.653611 c -1.73047,-3.644229 -1.91198,-4.169261 -1.25206,-3.62157 1.1621,0.964458 3.15002,5.228095 2.99679,6.427439 l -0.0874,0.684286 z M 85.775455,86.397521 c 1.429385,-1.534509 5.715605,-3.827948 6.19054,-3.312387 0.09113,0.09893 0.03814,0.225939 -0.117771,0.28224 -0.155909,0.0563 -1.584659,0.886437 -3.175,1.844749 -3.50101,2.109647 -3.917344,2.279958 -2.897769,1.185398 z m 14.955195,-3.483046 c -0.65484,-0.11652 -2.106328,-0.22068 -3.225526,-0.231467 -2.01503,-0.01942 -2.875574,-0.340989 -1.732431,-0.647376 1.708468,-0.457908 5.982097,0.01194 6.979347,0.767319 l 0.49216,0.372783 -0.66146,-0.0247 c -0.3638,-0.01359 -1.19724,-0.120037 -1.85209,-0.236557 z"
         style="fill:#fecea1;stroke-width:0.264583" />
      <path
         id="path963"
         d="m 94.380654,115.75731 c -0.509323,-0.10051 -1.164167,-0.33264 -1.455208,-0.51585 l -0.529167,-0.33311 1.455208,0.14887 c 0.800365,0.0819 2.462361,0.22812 3.693324,0.32497 1.463868,0.11519 2.058808,0.24623 1.719792,0.37881 -0.634315,0.24806 -3.619574,0.24581 -4.883949,-0.004 z m 11.100626,-2.5424 c 1.2301,-0.80469 2.4511,-1.65724 2.71333,-1.89456 0.26223,-0.23732 0.55615,-0.35213 0.65314,-0.25514 0.29121,0.29121 -2.10478,2.40615 -3.43343,3.03069 -2.2426,1.05415 -2.20866,0.60764 0.067,-0.88099 z m -12.047525,-2.26414 -0.499746,-0.55222 -0.0043,-1.89518 c -0.0024,-1.04235 0.16878,-4.08056 0.380299,-6.75157 l 0.384582,-4.856384 -0.749422,-1.385403 -0.74942,-1.385402 0.114745,-3.218325 c 0.06983,-1.958585 0.236083,-3.339663 0.424734,-3.528314 l 0.309989,-0.309989 0.490106,0.44354 c 0.612753,0.554535 0.813291,0.554535 1.426045,0 0.828569,-0.749846 1.071666,-0.08331 1.211953,3.323014 l 0.130784,3.175487 -0.697151,1.333275 -0.697151,1.333275 0.006,1.526222 c 0.0033,0.839425 0.167968,3.509134 0.365977,5.932684 0.383518,4.69409 0.251277,6.4509 -0.5285,7.02109 -0.62746,0.45881 -0.732925,0.44236 -1.319504,-0.2058 z m 6.33852,-0.12147 -0.441412,-0.67368 0.172828,-2.17059 c 0.09505,-1.19382 0.285634,-3.46941 0.423513,-5.05685 0.169046,-1.94624 0.160216,-3.308101 -0.02709,-4.181496 -0.385295,-1.796566 -0.192458,-10.738464 0.248416,-11.519225 1.17932,-2.0885 2.3867,1.235227 2.49636,6.872097 l 0.058,2.983632 -0.58926,1.290405 c -0.6961,1.524354 -0.74166,3.233167 -0.21192,7.947817 0.35717,3.1788 0.23757,4.53126 -0.43866,4.96048 -0.62001,0.39353 -1.24625,0.2259 -1.690815,-0.45259 z m -16.438206,-2.30288 c -0.803415,-0.86101 -1.932644,-3.22996 -2.084801,-4.3736 l -0.130947,-0.98422 1.314809,2.47563 c 0.723145,1.36159 1.444982,2.60579 1.604083,2.76489 0.159101,0.1591 0.289274,0.38453 0.289274,0.50094 0,0.38575 -0.429369,0.21977 -0.992418,-0.38364 z m 29.957241,-4.43177 c 0.085,-0.50933 0.29139,-2.11667 0.45859,-3.57188 l 0.30401,-2.645832 0.25028,0.926042 c 0.2956,1.093734 -0.18933,4.53346 -0.78332,5.55625 l -0.38414,0.66146 z m -32.933572,-6.044 c 0,-1.534334 0.794227,-4.402409 1.364941,-4.929013 0.213227,-0.196746 0.244385,-0.08916 0.112854,0.389676 -0.33203,1.208756 -0.93003,4.619421 -0.939398,5.357812 -0.0051,0.400183 -0.128293,0.727605 -0.273814,0.727605 -0.146203,0 -0.264583,-0.691748 -0.264583,-1.54608 z m 31.636602,-6.542611 c -0.81267,-1.709687 -1.42929,-3.156813 -1.37027,-3.215835 0.34996,-0.349961 2.30275,3.083447 2.79637,4.916575 0.54716,2.032023 0.0878,1.484231 -1.4261,-1.70074 z m -26.21185,-5.14176 c 0.310921,-0.503082 3.319569,-2.408051 4.411859,-2.793433 1.257841,-0.443793 1.606269,-0.33331 0.703532,0.223082 -4.078327,2.513631 -5.531665,3.243896 -5.115391,2.570351 z m 12.170039,-3.824924 -2.645833,-0.308159 1.259811,-0.212272 c 1.494779,-0.251864 4.240873,0.0087 5.354773,0.508186 l 0.79375,0.355891 -1.05833,-0.01774 c -0.58209,-0.0098 -2.248963,-0.156415 -3.704171,-0.325902 z"
         style="fill:#d1cdca;stroke-width:0.264583" />
      <path
         id="path961"
         d="m 94.380654,115.75731 c -0.509323,-0.10051 -1.164167,-0.33264 -1.455208,-0.51585 l -0.529167,-0.33311 1.455208,0.14887 c 0.800365,0.0819 2.462361,0.22812 3.693324,0.32497 1.463868,0.11519 2.058808,0.24623 1.719792,0.37881 -0.634315,0.24806 -3.619574,0.24581 -4.883949,-0.004 z m 11.100626,-2.5424 c 1.2301,-0.80469 2.4511,-1.65724 2.71333,-1.89456 0.26223,-0.23732 0.55615,-0.35213 0.65314,-0.25514 0.29121,0.29121 -2.10478,2.40615 -3.43343,3.03069 -2.2426,1.05415 -2.20866,0.60764 0.067,-0.88099 z m -5.42766,-2.08718 -0.513591,-0.37525 v -1.80756 c 0,-0.99416 0.159721,-3.32516 0.354939,-5.17999 l 0.354932,-3.37244 -0.323712,-1.811406 c -0.411752,-2.304026 -0.235548,-10.481023 0.245002,-11.369587 1.05115,-1.943649 2.14552,0.896936 2.34516,6.087172 l 0.13938,3.623814 -0.60243,1.484283 -0.60242,1.484284 0.16628,2.8294 c 0.0915,1.55617 0.2437,3.93275 0.33831,5.28128 l 0.17201,2.45187 -0.47484,0.52469 c -0.56325,0.62239 -0.90766,0.65458 -1.59902,0.14944 z m -6.687164,-0.35235 c -0.515229,-0.99789 -0.555816,-2.47577 -0.176206,-6.41615 0.217298,-2.25557 0.39544,-4.97281 0.395871,-6.038303 l 7.94e-4,-1.93726 -0.69754,-1.19026 -0.697539,-1.190262 0.134281,-3.042866 c 0.138235,-3.132471 0.435743,-4.052466 0.981012,-3.033621 0.396985,0.741773 1.489805,0.733734 1.889929,-0.0139 l 0.305842,-0.571475 0.262676,0.469372 c 0.14447,0.258155 0.325519,1.700731 0.402328,3.205724 l 0.139658,2.736351 -0.737736,1.458104 -0.737732,1.458103 0.175361,3.382123 c 0.492252,9.49391 0.502076,10.032 0.193648,10.6083 -0.376827,0.70411 -1.494501,0.77479 -1.834637,0.11602 z m -10.032387,-2.24896 c -0.803415,-0.86101 -1.932644,-3.22996 -2.084801,-4.3736 l -0.130947,-0.98422 1.314809,2.47563 c 0.723145,1.36159 1.444982,2.60579 1.604083,2.76489 0.159101,0.1591 0.289274,0.38453 0.289274,0.50094 0,0.38575 -0.429369,0.21977 -0.992418,-0.38364 z m 29.957241,-4.43177 c 0.085,-0.50933 0.29139,-2.11667 0.45859,-3.57188 l 0.30401,-2.645832 0.25028,0.926042 c 0.2956,1.093734 -0.18933,4.53346 -0.78332,5.55625 l -0.38414,0.66146 z m -32.933572,-6.044 c 0,-1.534334 0.794227,-4.402409 1.364941,-4.929013 0.213227,-0.196746 0.244385,-0.08916 0.112854,0.389676 -0.33203,1.208756 -0.93003,4.619421 -0.939398,5.357812 -0.0051,0.400183 -0.128293,0.727605 -0.273814,0.727605 -0.146203,0 -0.264583,-0.691748 -0.264583,-1.54608 z m 31.636602,-6.542611 c -0.81267,-1.709687 -1.42929,-3.156813 -1.37027,-3.215835 0.34996,-0.349961 2.30275,3.083447 2.79637,4.916575 0.54716,2.032023 0.0878,1.484231 -1.4261,-1.70074 z m -26.21185,-5.14176 c 0.310921,-0.503082 3.319569,-2.408051 4.411859,-2.793433 1.257841,-0.443793 1.606269,-0.33331 0.703532,0.223082 -4.078327,2.513631 -5.531665,3.243896 -5.115391,2.570351 z m 12.170039,-3.824924 -2.645833,-0.308159 1.259811,-0.212272 c 1.494779,-0.251864 4.240873,0.0087 5.354773,0.508186 l 0.79375,0.355891 -1.05833,-0.01774 c -0.58209,-0.0098 -2.248963,-0.156415 -3.704171,-0.325902 z"
         style="fill:#feca97;stroke-width:0.264583" />
      <path
         id="path959"
         d="m 95.082395,115.72343 c -1.704476,-0.28602 -1.983147,-0.63741 -0.334084,-0.42127 0.711536,0.0933 1.783099,0.17139 2.38125,0.17362 0.799645,0.003 0.982488,0.072 0.690676,0.26053 -0.452744,0.29259 -0.930825,0.29034 -2.737842,-0.0129 z m 10.146175,-2.09649 c 1.0203,-0.78685 2.74956,-1.71209 2.52708,-1.35212 -0.33082,0.53529 -2.313,1.87439 -2.76522,1.86811 -0.30827,-0.004 -0.24356,-0.14451 0.23814,-0.51599 z m -5.17495,-2.49921 -0.513591,-0.37525 v -1.80756 c 0,-0.99416 0.159721,-3.32516 0.354939,-5.17999 l 0.354932,-3.37244 -0.323712,-1.811406 c -0.411752,-2.304026 -0.235548,-10.481023 0.245002,-11.369587 1.05115,-1.943649 2.14552,0.896936 2.34516,6.087172 l 0.13938,3.623814 -0.60243,1.484283 -0.60242,1.484284 0.16628,2.8294 c 0.0915,1.55617 0.2437,3.93275 0.33831,5.28128 l 0.17201,2.45187 -0.47484,0.52469 c -0.56325,0.62239 -0.90766,0.65458 -1.59902,0.14944 z m -6.687164,-0.35235 c -0.515229,-0.99789 -0.555816,-2.47577 -0.176206,-6.41615 0.217298,-2.25557 0.39544,-4.97281 0.395871,-6.038303 l 7.94e-4,-1.93726 -0.69754,-1.19026 -0.697539,-1.190262 0.134281,-3.042866 c 0.138235,-3.132471 0.435743,-4.052466 0.981012,-3.033621 0.396985,0.741773 1.489805,0.733734 1.889929,-0.0139 l 0.305842,-0.571475 0.262676,0.469372 c 0.14447,0.258155 0.325519,1.700731 0.402328,3.205724 l 0.139658,2.736351 -0.737736,1.458104 -0.737732,1.458103 0.175361,3.382123 c 0.492252,9.49391 0.502076,10.032 0.193648,10.6083 -0.376827,0.70411 -1.494501,0.77479 -1.834637,0.11602 z m -10.822719,-3.68894 c -0.564793,-0.81062 -1.199581,-2.47891 -1.013891,-2.6646 0.06389,-0.0639 0.488939,0.62231 0.944558,1.52489 0.884779,1.75274 0.921929,2.36341 0.06933,1.13971 z m 31.185343,-4.97617 c -0.002,-0.43656 0.0952,-1.27 0.21556,-1.85208 l 0.21891,-1.058335 0.0118,1.322915 c 0.007,0.72761 -0.0905,1.56104 -0.21556,1.85208 l -0.2274,0.52917 -0.003,-0.79375 z M 80.507656,97.017042 c 0.100288,-0.691224 0.350058,-1.554427 0.555045,-1.918229 l 0.372702,-0.661458 -0.122819,0.529166 c -0.06755,0.291042 -0.202136,1.154245 -0.299078,1.91823 -0.09694,0.763984 -0.291443,1.389062 -0.432225,1.389062 -0.154567,0 -0.183733,-0.497861 -0.07363,-1.256771 z m 31.725614,-5.266191 c -0.36386,-0.822734 -0.61406,-1.543371 -0.55602,-1.601417 0.16653,-0.16652 1.16385,1.565403 1.36459,2.369692 0.30142,1.207709 -0.10583,0.82075 -0.80857,-0.768275 z m -24.056302,-6.93741 c 1.014972,-0.73901 2.234936,-1.275374 2.234936,-0.982601 0,0.18659 -2.698297,1.737216 -3.028686,1.74049 -0.137809,0.0014 0.219379,-0.339684 0.79375,-0.757889 z m 10.172436,-2.414628 -1.455208,-0.178331 1.719791,-0.02453 c 0.945886,-0.01349 1.957913,0.0778 2.248963,0.20286 l 0.52916,0.227391 -0.79375,-0.02453 c -0.43656,-0.01349 -1.448591,-0.10478 -2.248956,-0.202862 z"
         style="fill:#cbc6c3;stroke-width:0.264583" />
      <path
         id="path957"
         d="m 95.082395,115.72343 c -1.704476,-0.28602 -1.983147,-0.63741 -0.334084,-0.42127 0.711536,0.0933 1.783099,0.17139 2.38125,0.17362 0.799645,0.003 0.982488,0.072 0.690676,0.26053 -0.452744,0.29259 -0.930825,0.29034 -2.737842,-0.0129 z m 10.146175,-2.09649 c 1.0203,-0.78685 2.74956,-1.71209 2.52708,-1.35212 -0.33082,0.53529 -2.313,1.87439 -2.76522,1.86811 -0.30827,-0.004 -0.24356,-0.14451 0.23814,-0.51599 z m -5.12314,-2.5224 c -0.729374,-0.72937 -0.766982,-1.51641 -0.284686,-5.95794 l 0.478796,-4.40935 -0.353995,-2.275596 c -0.398063,-2.558862 -0.248375,-9.865388 0.227445,-11.101903 0.98334,-2.55544 2.38083,1.520645 2.40052,7.001663 l 0.009,2.569893 -0.55747,1.398857 -0.55748,1.398857 0.15285,3.042709 c 0.0841,1.67349 0.23167,4.06871 0.328,5.32271 l 0.17514,2.28 -0.56427,0.56427 c -0.66919,0.66919 -0.9219,0.69801 -1.45408,0.16583 z m -6.809798,-0.44518 c -0.21887,-0.40896 -0.258253,-1.59407 -0.134084,-4.03489 0.09669,-1.90073 0.24827,-4.92061 0.336836,-6.710865 l 0.161029,-3.255002 -0.736986,-1.456626 -0.736986,-1.456628 0.172331,-2.816534 c 0.166564,-2.722276 0.552376,-3.992161 0.857913,-2.823786 0.336346,1.286189 1.528335,1.378899 1.993644,0.155062 l 0.266869,-0.701903 0.29708,0.529167 c 0.166616,0.296782 0.303686,1.807283 0.312123,3.439583 l 0.01505,2.910417 -0.63147,1.015777 -0.631471,1.015776 0.165206,3.614432 c 0.09087,1.98794 0.23826,4.98365 0.327546,6.65714 0.187921,3.52218 -0.04334,4.49792 -1.066038,4.49792 -0.406818,0 -0.777195,-0.22142 -0.968586,-0.57904 z m -10.751895,-3.57292 c -0.564793,-0.81062 -1.199581,-2.47891 -1.013891,-2.6646 0.06389,-0.0639 0.488939,0.62231 0.944558,1.52489 0.884779,1.75274 0.921929,2.36341 0.06933,1.13971 z m 31.185343,-4.97617 c -0.002,-0.43656 0.0952,-1.27 0.21556,-1.85208 l 0.21891,-1.058335 0.0118,1.322915 c 0.007,0.72761 -0.0905,1.56104 -0.21556,1.85208 l -0.2274,0.52917 -0.003,-0.79375 z M 80.507656,97.017042 c 0.100288,-0.691224 0.350058,-1.554427 0.555045,-1.918229 l 0.372702,-0.661458 -0.122819,0.529166 c -0.06755,0.291042 -0.202136,1.154245 -0.299078,1.91823 -0.09694,0.763984 -0.291443,1.389062 -0.432225,1.389062 -0.154567,0 -0.183733,-0.497861 -0.07363,-1.256771 z m 31.725614,-5.266191 c -0.36386,-0.822734 -0.61406,-1.543371 -0.55602,-1.601417 0.16653,-0.16652 1.16385,1.565403 1.36459,2.369692 0.30142,1.207709 -0.10583,0.82075 -0.80857,-0.768275 z m -24.056302,-6.93741 c 1.014972,-0.73901 2.234936,-1.275374 2.234936,-0.982601 0,0.18659 -2.698297,1.737216 -3.028686,1.74049 -0.137809,0.0014 0.219379,-0.339684 0.79375,-0.757889 z m 10.172436,-2.414628 -1.455208,-0.178331 1.719791,-0.02453 c 0.945886,-0.01349 1.957913,0.0778 2.248963,0.20286 l 0.52916,0.227391 -0.79375,-0.02453 c -0.43656,-0.01349 -1.448591,-0.10478 -2.248956,-0.202862 z"
         style="fill:#fec38a;stroke-width:0.264583" />
      <path
         id="path955"
         d="m 100.10543,111.10454 c -0.729374,-0.72937 -0.766982,-1.51641 -0.284686,-5.95794 l 0.478796,-4.40935 -0.353995,-2.275596 c -0.398063,-2.558862 -0.248375,-9.865388 0.227445,-11.101903 0.98334,-2.55544 2.38083,1.520645 2.40052,7.001663 l 0.009,2.569893 -0.55747,1.398857 -0.55748,1.398857 0.15285,3.042709 c 0.0841,1.67349 0.23167,4.06871 0.328,5.32271 l 0.17514,2.28 -0.56427,0.56427 c -0.66919,0.66919 -0.9219,0.69801 -1.45408,0.16583 z m -6.809798,-0.44518 c -0.21887,-0.40896 -0.258253,-1.59407 -0.134084,-4.03489 0.09669,-1.90073 0.24827,-4.92061 0.336836,-6.710865 l 0.161029,-3.255002 -0.736986,-1.456626 -0.736986,-1.456628 0.172331,-2.816534 c 0.166564,-2.722276 0.552376,-3.992161 0.857913,-2.823786 0.336346,1.286189 1.528335,1.378899 1.993644,0.155062 l 0.266869,-0.701903 0.29708,0.529167 c 0.166616,0.296782 0.303686,1.807283 0.312123,3.439583 l 0.01505,2.910417 -0.63147,1.015777 -0.631471,1.015776 0.165206,3.614432 c 0.09087,1.98794 0.23826,4.98365 0.327546,6.65714 0.187921,3.52218 -0.04334,4.49792 -1.066038,4.49792 -0.406818,0 -0.777195,-0.22142 -0.968586,-0.57904 z"
         style="fill:#c7c1bd;stroke-width:0.264583" />
      <path
         id="path953"
         d="m 93.297241,110.66237 c -0.214288,-0.4004 -0.25732,-1.54996 -0.141139,-3.77032 0.09193,-1.75685 0.243532,-4.77661 0.336897,-6.71056 l 0.169753,-3.516285 -0.736453,-1.455577 -0.736454,-1.455575 0.184882,-2.701057 c 0.187571,-2.740353 0.513099,-3.734746 0.821007,-2.507942 0.361171,1.43902 1.663438,1.415706 2.110089,-0.03778 l 0.196183,-0.638412 0.2541,0.454056 c 0.139759,0.24973 0.274408,1.727641 0.29922,3.284245 l 0.04512,2.830189 -0.632455,1.017368 -0.632455,1.017367 0.170612,4.009723 c 0.09384,2.20534 0.245379,5.22694 0.336761,6.71466 l 0.166151,2.70495 -0.438013,0.66849 c -0.537961,0.82103 -1.360927,0.86393 -1.773806,0.0925 z m 6.715539,0.25867 c -0.596042,-0.74393 -0.626432,-1.69706 -0.179471,-5.629 l 0.464311,-4.08458 -0.350717,-2.949152 c -0.604298,-5.081471 -0.08472,-11.626162 0.922997,-11.626162 1.41946,0 2.33785,9.048023 1.17786,11.604414 l -0.52336,1.153374 v 2.274016 c 0,1.25072 0.14272,3.55752 0.31715,5.12624 0.36932,3.32136 0.18033,4.27202 -0.87383,4.39544 -0.37358,0.0437 -0.8033,-0.0753 -0.95494,-0.26459 z"
         style="fill:#c2bcb8;stroke-width:0.264583" />
      <path
         id="path951"
         d="m 93.436904,110.58704 -0.44799,-0.68372 0.169026,-2.83819 c 0.09296,-1.56101 0.243129,-4.64335 0.333701,-6.84965 l 0.164674,-4.011457 -0.630018,-0.883336 -0.630018,-0.883332 0.05107,-2.882113 c 0.05309,-2.996144 0.425604,-4.192758 0.756366,-2.42965 l 0.182887,0.974871 0.805834,-0.08051 0.805834,-0.08051 0.304898,-0.910564 0.3049,-0.910565 0.180041,0.469183 c 0.09903,0.258051 0.1796,1.679837 0.179054,3.159523 l -0.0011,2.69034 -0.563292,0.924033 -0.563293,0.924034 0.164608,4.235333 c 0.09053,2.32945 0.231777,5.36644 0.31387,6.7489 0.203676,3.42996 -0.729332,5.07531 -1.881164,3.31739 z m 6.568876,0.32063 c -0.521975,-0.66271 -0.611058,-1.87087 -0.294068,-3.98828 0.2022,-1.35064 0.330178,-5.46272 0.340668,-10.946449 l 0.0168,-8.783166 0.3495,-0.34496 0.34952,-0.34496 0.48911,0.598354 c 0.66448,0.812882 1.05464,2.797685 1.24529,6.334949 l 0.15978,2.964553 -0.60083,1.647835 c -0.69003,1.892464 -0.74066,3.807514 -0.23131,8.749044 l 0.31921,3.09682 -0.30686,0.67349 c -0.33412,0.73331 -1.37607,0.92774 -1.83683,0.34277 z"
         style="fill:#bdb6b2;stroke-width:0.264583" />
      <path
         id="path949"
         d="m 93.479805,110.66491 c -0.491105,-0.70115 -0.550025,-2.90895 -0.166619,-6.24343 0.138289,-1.20269 0.273261,-3.52441 0.299938,-5.159372 l 0.0485,-2.97267 -0.56554,-0.926042 -0.565539,-0.926041 -9.89e-4,-2.828656 c -0.001,-2.894788 0.340057,-3.962638 0.660279,-2.06726 l 0.178994,1.059457 0.572057,-0.0041 c 0.802309,-0.0057 1.124127,-0.278829 1.332823,-1.131249 0.355989,-1.454039 0.694441,-0.374938 0.694441,2.214119 v 2.635088 l -0.666078,1.273852 -0.666081,1.273852 0.276265,4.079092 c 0.564624,8.33676 0.574813,8.8095 0.204809,9.5007 -0.468321,0.87486 -1.118492,0.96326 -1.637264,0.22261 z m 6.525005,0.24276 c -0.460365,-0.5823 -0.545452,-1.81149 -0.259025,-3.7418 0.153479,-1.03433 0.289035,-5.8942 0.301235,-10.799721 l 0.0222,-8.919121 0.43689,-0.438009 0.43689,-0.438009 0.42025,0.641378 c 0.56447,0.861488 0.93795,2.945669 1.12875,6.298925 l 0.15807,2.778125 -0.71497,2.061784 -0.71496,2.061788 0.15899,1.77467 c 0.0874,0.97607 0.28739,3.08436 0.44433,4.68509 0.33055,3.37162 0.12072,4.36563 -0.92154,4.36563 -0.34959,0 -0.75328,-0.14883 -0.89709,-0.33073 z"
         style="fill:#b8b1ad;stroke-width:0.264583" />
      <path
         id="path947"
         d="m 93.553155,110.80144 c -0.468005,-0.56316 -0.47321,-3.56676 -0.0164,-9.46033 l 0.346732,-4.473333 -0.67746,-1.305774 -0.67746,-1.305775 v -2.621416 c 0,-2.616965 0.315362,-3.447175 0.644001,-1.695374 l 0.173727,0.926042 0.583322,-0.0041 c 0.824738,-0.0057 1.175687,-0.289985 1.384322,-1.121249 0.349374,-1.39202 0.654211,-0.408909 0.654211,2.109856 v 2.540827 l -0.689562,1.176649 -0.689563,1.17665 0.358833,4.932007 c 0.457494,6.28807 0.455438,8.57075 -0.0082,9.12943 -0.457563,0.55133 -0.926013,0.54992 -1.386476,-0.004 z m 6.376237,0.031 -0.336886,-0.40592 0.223073,-2.96752 c 0.12269,-1.63213 0.229941,-6.80219 0.238341,-11.489026 l 0.0153,-8.521517 0.43689,-0.438738 0.43689,-0.438739 0.40387,0.625881 c 0.60242,0.933578 1.02604,3.70292 1.06709,6.97588 l 0.0365,2.910417 -0.62871,1.449589 -0.6287,1.449591 0.16942,2.386862 c 0.0932,1.31278 0.30448,3.54164 0.46957,4.95302 l 0.30015,2.56615 -0.44228,0.675 c -0.49794,0.75995 -1.25684,0.87594 -1.760503,0.26907 z"
         style="fill:#b3aba6;stroke-width:0.264583" />
      <path
         id="path945"
         d="m 93.553912,110.80177 c -0.471535,-0.56817 -0.468706,-3.11417 0.01028,-9.25559 l 0.374169,-4.797423 -0.704898,-1.202814 -0.704896,-1.202817 v -2.252375 c 0,-2.136218 0.397199,-3.391907 0.577305,-1.82507 l 0.08415,0.73209 0.967973,0.08067 0.967975,0.08067 0.178036,-0.810587 c 0.316045,-1.438944 0.664141,-0.569335 0.664141,1.659147 v 2.169303 l -0.661458,1.242546 c -0.788371,1.480949 -0.810787,2.212726 -0.264332,8.62874 0.398462,4.67842 0.282337,6.4996 -0.443796,6.95999 -0.496018,0.31448 -0.635104,0.28699 -1.044656,-0.20649 z m 6.364445,-0.1272 c -0.235138,-0.43936 -0.25722,-1.29514 -0.08405,-3.2572 0.129188,-1.4637 0.198643,-6.11408 0.154342,-10.334182 -0.0443,-4.220104 0.01852,-8.208698 0.139611,-8.863542 l 0.22016,-1.190625 h 0.51021 c 0.71341,0 1.13998,1.622221 1.49582,5.688542 l 0.28942,3.307292 -0.69203,2.004266 c -0.79888,2.313769 -0.83402,3.293629 -0.29205,8.145019 l 0.39488,3.53471 -0.33376,0.69863 c -0.43766,0.91612 -1.38044,1.05581 -1.802555,0.26709 z"
         style="fill:#aaa29c;stroke-width:0.264583" />
      <path
         id="path943"
         d="m 93.750993,110.83552 c -0.653294,-0.65329 -0.724845,-2.22745 -0.306398,-6.74087 0.22261,-2.4011 0.405228,-5.080951 0.405818,-5.955235 l 0.0011,-1.589603 -0.661458,-1.242547 -0.661458,-1.242546 v -1.864203 c 0,-1.778967 0.310695,-2.463631 0.605829,-1.335036 l 0.13838,0.529166 h 0.957427 0.957426 l 0.15789,-0.789455 c 0.279083,-1.395413 0.622631,-0.562559 0.622631,1.509429 v 2.01166 l -0.698365,1.191669 -0.698365,1.19167 0.16936,3.197201 c 0.575344,10.86156 0.571616,11.05589 -0.217898,11.35886 -0.215326,0.0826 -0.562676,-0.0209 -0.771893,-0.23016 z m 6.301467,-0.0485 -0.451402,-0.4514 0.164004,-2.26058 c 0.0902,-1.24331 0.287418,-3.4512 0.438268,-4.90641 0.19831,-1.91322 0.19072,-3.12327 -0.0274,-4.37011 -0.322986,-1.845961 -0.211967,-10.621505 0.14471,-11.438739 0.88218,-2.021287 1.96255,1.676255 2.04327,6.993025 l 0.0414,2.730412 -0.61017,1.400318 -0.61017,1.400315 0.17047,2.700729 c 0.0938,1.48539 0.24579,3.85972 0.33785,5.27627 0.20699,3.18551 -0.36372,4.20329 -1.64084,2.92617 z"
         style="fill:#a49b94;stroke-width:0.264583" />
      <path
         id="path941"
         d="m 100.0397,110.56906 -0.438563,-0.66934 0.148947,-1.64577 c 0.08192,-0.90517 0.289716,-2.95545 0.461766,-4.55618 l 0.31282,-2.91042 -0.33185,-2.152823 c -0.340614,-2.209643 -0.23921,-10.346244 0.14051,-11.274776 0.75058,-1.835374 1.71073,1.082942 1.91092,5.808064 l 0.14797,3.49296 -0.6047,1.616949 -0.60469,1.616948 0.17084,2.959878 c 0.094,1.62794 0.24826,4.01994 0.3429,5.31557 l 0.17207,2.35567 -0.48727,0.35631 c -0.67389,0.49276 -0.83892,0.45425 -1.34167,-0.31304 z m -6.595983,-0.32285 c -0.0843,-0.40018 -0.198614,-0.95177 -0.254037,-1.22574 -0.05542,-0.27398 0.07032,-2.35757 0.279439,-4.63021 0.209114,-2.27264 0.376979,-5.025041 0.373031,-6.116447 l -0.0072,-1.984375 -0.651845,-1.058333 -0.651845,-1.058334 -0.0014,-1.505739 c -7.59e-4,-0.828157 0.117693,-1.579324 0.263214,-1.669261 0.145521,-0.08994 0.264583,0.02894 0.264583,0.264182 v 0.427703 l 1.113936,-0.08136 1.113938,-0.08136 0.155014,-0.661458 0.155017,-0.661459 0.186256,0.484661 c 0.429617,1.117913 0.191587,3.263015 -0.507013,4.569161 l -0.693267,1.296178 0.165111,3.439584 c 0.09081,1.891777 0.240194,4.955907 0.331965,6.809197 l 0.166856,3.36961 -0.332552,0.4007 c -0.545899,0.65777 -1.297067,0.49064 -1.469281,-0.3269 z"
         style="fill:#9c928c;stroke-width:0.264583" />
      <path
         id="path939"
         d="m 100.51512,111.03938 c -0.805472,-0.28035 -0.889837,-1.45061 -0.41576,-5.76717 l 0.46637,-4.2464 -0.356,-2.689717 c -0.39872,-3.012508 -0.227807,-10.00556 0.26715,-10.930385 l 0.29068,-0.543145 0.3602,0.298943 c 0.55961,0.464435 0.95757,2.732083 1.11665,6.362859 l 0.14548,3.320343 -0.56504,1.277353 -0.56503,1.277353 v 2.119656 c 0,1.1658 0.13836,3.44695 0.30746,5.0692 0.39202,3.76085 0.13147,4.86309 -1.05216,4.45111 z m -6.931953,-0.46695 -0.333114,-0.40137 0.170103,-3.23665 c 0.09356,-1.78015 0.244663,-4.84955 0.33579,-6.82089 l 0.165688,-3.584261 -0.696532,-1.308431 c -0.383092,-0.719636 -0.694708,-1.726096 -0.69248,-2.236576 0.0047,-1.079537 0.356141,-1.812481 0.644967,-1.345151 0.218541,0.353607 2.03205,0.09379 2.306581,-0.330459 0.282861,-0.437123 0.554308,1.543543 0.344361,2.512716 -0.104915,0.484319 -0.430766,1.220054 -0.724112,1.634968 l -0.533358,0.754388 0.172263,4.008116 c 0.09475,2.20446 0.245229,5.26833 0.334407,6.80861 0.201821,3.4858 -0.386186,4.88051 -1.494564,3.54499 z"
         style="fill:#958a83;stroke-width:0.264583" />
      <path
         id="path937"
         d="m 93.572021,110.41684 c -0.219814,-0.41073 -0.264538,-1.43622 -0.147821,-3.3894 0.09204,-1.54028 0.241187,-4.59696 0.331437,-6.79264 l 0.164086,-3.99213 -0.440151,-0.671756 C 92.860462,94.626033 92.496066,93.23187 92.664628,92.45298 l 0.143148,-0.661459 h 1.44795 1.447953 l -0.0011,1.322917 c -7.94e-4,0.854875 -0.187907,1.629407 -0.52922,2.189208 l -0.528164,0.86629 -0.0019,2.573293 c -0.0011,1.415311 0.140269,4.311901 0.314053,6.436871 0.334822,4.09412 0.169897,5.58682 -0.634394,5.74171 -0.240017,0.0462 -0.577371,-0.18062 -0.750957,-0.50497 z m 6.549369,0.35854 c -0.380926,-0.67901 -0.398161,-1.95186 -0.063,-4.65362 l 0.38008,-3.06396 -0.14875,-7.35293 c -0.10865,-5.369814 -0.0639,-7.56701 0.16585,-8.146682 l 0.31462,-0.79375 0.36143,0.492151 c 0.54445,0.741366 0.92872,2.879805 1.10493,6.148827 l 0.15829,2.936812 -0.65345,1.95798 -0.65346,1.957982 0.19151,2.91041 c 0.10534,1.60073 0.28028,3.82999 0.38876,4.95391 0.14536,1.50597 0.10907,2.14974 -0.13796,2.4474 -0.34993,0.42164 -1.21666,0.54805 -1.40885,0.20547 z"
         style="fill:#90857e;stroke-width:0.264583" />
      <path
         id="path935"
         d="m 93.587674,110.31438 c -0.333225,-0.87645 -0.334901,-2.80173 -0.0049,-5.67187 0.141019,-1.22665 0.270311,-3.63536 0.287313,-5.352705 l 0.03091,-3.12244 -0.553904,-0.896234 C 92.997914,94.706146 92.79319,93.930982 92.79319,93.173841 v -1.201054 l 1.455568,-0.09063 1.455571,-0.09063 -2.65e-4,1.242771 c -2.38e-4,0.8261 -0.227652,1.668828 -0.678291,2.513543 l -0.677928,1.27077 0.154236,2.248958 c 0.08483,1.236931 0.284234,3.975371 0.443124,6.085421 0.307827,4.088 0.135959,5.62285 -0.646507,5.77353 -0.282493,0.0544 -0.542642,-0.1696 -0.71089,-0.61213 z m 6.472686,0.38055 c -0.237555,-0.38437 -0.178524,-4.18409 0.071,-4.56855 0.11134,-0.17157 0.20244,-4.44302 0.20244,-9.492113 0,-6.598949 0.0861,-9.266515 0.30622,-9.487259 l 0.30622,-0.307089 0.25747,0.491426 c 0.45456,0.867575 0.83452,3.169004 1.00733,6.10144 l 0.16835,2.856653 -0.70848,1.984375 -0.70848,1.984377 0.15551,1.98437 c 0.0855,1.09141 0.28502,3.24689 0.44331,4.78997 l 0.28778,2.80559 -0.30391,0.56785 c -0.3188,0.59569 -1.19034,0.76531 -1.48474,0.28896 z"
         style="fill:#8d817a;stroke-width:0.264583" />
      <path
         id="path933"
         d="m 93.561314,110.26546 c -0.297041,-0.76049 -0.280717,-1.2655 0.296531,-9.17364 l 0.306099,-4.193454 -0.685395,-1.321067 c -0.433993,-0.836505 -0.685395,-1.748833 -0.685395,-2.487278 v -1.166208 h 1.455208 1.455209 v 1.209657 c 0,0.829129 -0.219083,1.583492 -0.696442,2.398043 l -0.696439,1.188386 0.175332,2.827478 c 0.09643,1.555113 0.296637,4.256223 0.444902,6.002473 0.154564,1.82048 0.174418,3.62592 0.04653,4.23194 -0.278178,1.31825 -0.994593,1.56294 -1.416145,0.48367 z m 6.476136,0.0146 c -0.09576,-0.38155 -0.06826,-1.84007 0.0611,-3.24114 0.12937,-1.40108 0.19161,-5.79087 0.13831,-9.755091 -0.10473,-7.789478 0.0411,-10.122546 0.63268,-10.122546 1.306,0 1.81313,8.875265 0.65316,11.431095 -0.62587,1.379019 -0.64234,2.306812 -0.12793,7.205302 0.43335,4.1265 0.30103,5.1761 -0.65254,5.1761 -0.35197,0 -0.5893,-0.2336 -0.70479,-0.69373 z"
         style="fill:#877b73;stroke-width:0.264583" />
      <path
         id="path931"
         d="m 93.847857,110.70699 c -0.499048,-0.30843 -0.507475,-2.7005 -0.0301,-8.54413 0.399603,-4.891572 0.330711,-5.903831 -0.479211,-7.041258 -0.33735,-0.473766 -0.545393,-1.179292 -0.545393,-1.84957 v -1.083636 h 1.036693 c 0.570182,0 1.225026,-0.07227 1.455208,-0.160599 l 0.418516,-0.160599 -0.0013,1.152787 c -7.94e-4,0.760483 -0.223184,1.512947 -0.653201,2.21112 l -0.651846,1.058333 -0.0024,1.719792 c -0.0013,0.945885 0.155718,3.68432 0.348845,6.08542 0.459097,5.70778 0.241324,7.31515 -0.895861,6.61234 z m 6.356683,-0.12637 -0.345154,-0.41589 0.187954,-2.30744 c 0.50826,-6.24005 0.57291,-7.941322 0.34865,-9.174897 -0.34158,-1.878909 -0.1467,-10.881652 0.24401,-11.271973 l 0.30622,-0.305918 0.26671,0.498362 c 0.47048,0.879096 0.84905,3.637744 0.90561,6.599263 l 0.055,2.881061 -0.58917,1.290405 c -0.69568,1.523666 -0.74153,3.233707 -0.21285,7.938347 0.44953,4.00042 -0.006,5.66738 -1.16702,4.26868 z"
         style="fill:#81756c;stroke-width:0.264583" />
      <path
         id="path929"
         d="m 100.15286,110.3113 -0.301856,-0.66251 0.362316,-3.50468 c 0.38392,-3.71376 0.39099,-4.36294 0.12455,-11.442172 -0.16792,-4.461689 0.0377,-7.408333 0.51709,-7.408333 0.5047,0 0.97771,2.473729 1.12321,5.87421 l 0.14947,3.49296 -0.60309,1.612633 -0.60308,1.61263 0.16425,2.831912 c 0.0903,1.55755 0.24263,3.87123 0.33842,5.14152 0.21404,2.83832 -0.48282,4.1823 -1.27128,2.45183 z m -6.412365,0.0868 c -0.361334,-1.15702 -0.364036,-2.13609 -0.01672,-6.05359 0.212161,-2.39298 0.383503,-5.184303 0.380759,-6.202949 l -0.005,-1.852083 -0.651845,-1.058333 C 93.060314,94.602129 92.795315,93.770249 92.79451,93.180584 l -0.0014,-0.992188 h 1.455208 1.455209 v 0.886635 c 0,0.487649 -0.312788,1.469915 -0.695085,2.182812 l -0.695084,1.296178 0.221589,4.101039 c 0.121872,2.25558 0.226301,5.40886 0.232063,7.0073 l 0.01048,2.90626 -0.46382,0.0899 c -0.255104,0.0494 -0.513048,-0.0678 -0.573215,-0.26042 z"
         style="fill:#7a6c63;stroke-width:0.264583" />
      <path
         id="path927"
         d="m 93.747503,110.29071 c -0.246005,-0.64108 -0.146052,-4.4249 0.198621,-7.51898 l 0.309477,-2.778125 0.327491,3.571875 c 0.504788,5.50562 0.428032,7.14375 -0.33473,7.14375 -0.187142,0 -0.41253,-0.18833 -0.500859,-0.41852 z m 6.326597,-0.35292 c -0.156945,-0.71455 0.11588,-3.79428 0.63483,-7.16606 l 0.18324,-1.19063 0.23517,2.91042 c 0.12935,1.60073 0.24183,3.62479 0.24997,4.49792 l 0.0148,1.5875 -0.57095,0.0814 -0.57095,0.0814 -0.17611,-0.80186 z m 0.49388,-11.267102 c -0.33168,-1.498838 -0.2477,-10.237517 0.10443,-10.866726 l 0.28562,-0.510357 0.27155,0.71423 c 0.95947,2.523544 1.02835,8.556243 0.12024,10.530561 l -0.54764,1.190625 z m -7.093167,-3.687404 c -0.399936,-0.790459 -0.685796,-1.653381 -0.635244,-1.917605 l 0.09191,-0.480408 1.25308,-0.144379 1.253082,-0.144379 0.131726,0.415029 c 0.173056,0.545251 -0.192546,1.779319 -0.84423,2.849667 l -0.523171,0.859272 z"
         style="fill:#72645a;stroke-width:0.264583" />
      <path
         transform="matrix(0.13229167,0,0,0.13229167,67.70856,36.162875)"
         d="m 250.91797,386.5 -1.41406,6 c -1.80722,7.66535 -2.29893,70.45101 -0.61719,78.85938 l 1.27148,6.35742 3.39258,-7.60742 c 6.53034,-14.65041 6.36357,-52.18769 -0.33398,-75.57813 z m -59.30274,40 v 5.60352 c 0,3.08206 1.99669,9.07345 4.4375,13.31445 l 4.4375,7.71094 4.5,-7.31446 c 2.47486,-4.02308 4.52773,-10.01445 4.5625,-13.31445 l 0.0625,-6 h -9 z m 9.29297,66 -2.6875,24 c -2.55362,22.81194 -2.34335,40.56832 0.53321,45.22266 4.85955,7.86293 6.51512,-10.41237 4.00781,-44.22266 z m 49.55078,16 -1.41406,8 c -2.35555,13.33538 -4.07049,40.44411 -2.77344,43.82422 1.96649,5.12443 6.82144,3.65499 7.67969,-2.32422 0.43419,-3.02506 -0.17401,-15.39999 -1.35156,-27.5 z"
         style="fill:#6a5b51;stroke-width:2"
         id="path925" />
    </g>
  </g>
</svg>
